<?xml version="1.0" standalone="no"?>
<!DOCTYPE svg PUBLIC "-//W3C//DTD SVG 20010904//EN"
 "http://www.w3.org/TR/2001/REC-SVG-20010904/DTD/svg10.dtd">
<svg version="1.0" xmlns="http://www.w3.org/2000/svg"
 width="869.000000pt" height="567.000000pt" viewBox="0 0 869.000000 567.000000"
 preserveAspectRatio="xMidYMid meet">
<metadata>
Created by potrace 1.15, written by Peter Selinger 2001-2017
</metadata>
<g transform="translate(0.000000,567.000000) scale(0.100000,-0.100000)"
fill="#000000" stroke="none">
<path d="M5252 5290 c2 -16 27 -35 88 -67 47 -25 101 -50 120 -55 19 -6 47
-19 62 -29 14 -11 33 -19 42 -19 9 0 24 -4 34 -9 27 -15 109 -41 197 -63 130
-32 123 -17 130 -263 4 -115 9 -213 11 -216 2 -4 6 -83 9 -176 3 -92 7 -195
10 -228 3 -33 10 -129 15 -214 6 -85 14 -159 17 -164 3 -6 7 -33 8 -61 2 -51
13 -129 40 -286 8 -47 17 -101 20 -120 6 -33 23 -199 28 -267 2 -18 6 -35 9
-39 4 -3 4 -19 1 -35 -3 -16 0 -35 7 -43 7 -10 13 -65 16 -147 2 -72 6 -135 9
-139 3 -5 7 -107 10 -227 3 -120 8 -238 12 -263 4 -25 6 -74 5 -110 -1 -36 3
-85 8 -110 13 -58 40 -369 33 -386 -3 -7 -2 -18 2 -24 4 -6 8 -64 10 -128 l4
-117 -77 -23 c-42 -13 -94 -26 -115 -29 -20 -3 -40 -9 -43 -14 -3 -5 -20 -9
-37 -9 -32 0 -127 -24 -240 -61 -69 -23 -105 -24 -143 -4 -38 20 -56 19 -52
-2 2 -10 10 -18 18 -18 8 0 21 -12 28 -28 16 -33 20 -33 82 -2 27 14 62 25 78
25 16 0 54 9 85 19 31 11 65 20 74 19 10 0 43 9 73 21 30 12 72 23 93 26 42 6
182 41 197 50 6 4 8 73 4 178 -2 95 -6 220 -8 278 -2 59 -6 112 -10 118 -4 6
-11 55 -17 108 -9 96 -10 110 -8 136 1 6 -2 57 -6 112 -4 55 -6 118 -4 140 3
62 2 104 -5 175 -4 36 -7 112 -7 170 0 57 -4 125 -10 150 -12 50 -16 93 -24
225 -5 85 -16 164 -37 265 -5 25 -11 71 -15 103 -3 31 -8 57 -12 57 -3 0 -7
24 -7 52 -1 29 -4 71 -7 93 -30 214 -47 388 -52 535 -10 279 -12 317 -19 329
-4 6 -7 55 -7 108 0 54 -4 123 -10 153 -17 97 -27 264 -16 278 10 12 -3 36
-21 38 -4 0 -20 6 -37 13 -16 7 -39 13 -50 14 -11 0 -25 4 -31 9 -13 10 -180
49 -208 49 -10 0 -25 7 -33 14 -8 8 -39 22 -68 31 -30 8 -58 21 -62 28 -9 16
-82 56 -101 56 -7 0 -31 9 -53 21 l-41 20 4 -21z"/>
<path d="M5195 5263 c-22 -8 -51 -20 -65 -26 -14 -6 -27 -10 -30 -9 -3 0 -17
-8 -30 -19 l-25 -20 40 3 c22 1 49 8 60 15 47 31 52 14 60 -182 3 -71 8 -137
11 -145 3 -8 7 -35 9 -60 1 -25 6 -90 10 -145 4 -55 8 -124 10 -155 2 -30 6
-93 9 -140 9 -146 15 -242 21 -340 3 -52 8 -111 10 -130 6 -46 14 -168 20
-302 2 -59 9 -125 15 -147 6 -22 10 -57 10 -78 -1 -87 9 -203 24 -283 9 -47
18 -98 20 -115 7 -59 27 -211 33 -255 4 -25 6 -56 4 -70 -4 -40 -3 -48 18
-199 11 -79 18 -147 16 -152 -3 -4 -1 -47 4 -96 6 -48 15 -146 21 -218 6 -71
15 -152 20 -180 5 -27 14 -97 20 -155 11 -112 27 -224 42 -305 5 -27 11 -79
14 -115 6 -72 22 -101 43 -76 10 11 10 20 1 37 -7 12 -14 58 -17 103 -3 44
-10 87 -16 94 -5 7 -11 49 -12 95 -2 45 -7 93 -13 108 -5 14 -8 46 -5 71 3 26
0 62 -8 84 -7 22 -14 61 -15 87 -1 26 -5 64 -9 85 -4 20 -9 71 -11 112 -9 207
-25 400 -54 655 -13 115 -22 221 -21 262 1 18 -4 35 -9 38 -6 3 -10 21 -10 40
0 19 -4 45 -9 58 -6 14 -12 69 -16 124 -3 54 -7 121 -9 148 -1 28 -8 77 -14
110 -6 32 -12 91 -13 130 0 38 -1 90 -1 115 0 25 -7 85 -15 135 -8 49 -15 147
-15 217 0 71 -4 131 -9 134 -5 3 -9 26 -9 52 0 26 -2 74 -4 107 -7 92 -17 255
-18 303 0 26 -6 46 -14 49 -9 3 -10 11 -3 30 10 27 6 103 -6 124 -17 27 -27
321 -12 362 14 38 0 47 -48 30z"/>
<path d="M4636 4893 c-13 -56 -11 -296 2 -301 7 -2 10 -8 7 -12 -3 -5 -1 -69
5 -142 15 -181 17 -206 24 -216 6 -10 18 -202 31 -507 2 -67 6 -137 9 -155 4
-33 15 -144 21 -213 2 -17 6 -72 10 -122 4 -49 9 -97 12 -105 3 -8 7 -35 9
-60 3 -44 18 -117 35 -174 5 -16 9 -47 9 -69 0 -22 5 -80 12 -128 10 -77 14
-89 31 -89 17 0 19 5 12 33 -7 33 -8 42 -19 157 -3 36 -11 92 -17 125 -5 33
-12 85 -15 115 -2 30 -7 62 -10 70 -5 14 -13 113 -16 200 0 19 -6 44 -11 55
-10 19 -13 57 -17 218 -1 37 -6 69 -10 72 -6 4 -6 56 0 75 3 7 1 83 -3 195 -2
50 -9 101 -16 114 -8 15 -11 38 -7 63 4 22 3 45 -1 51 -4 7 -9 48 -10 92 -1
44 -3 80 -4 80 -3 0 -9 48 -12 95 -2 25 -7 51 -11 58 -4 7 -8 70 -8 140 0 70
-2 131 -6 136 -3 5 -6 46 -6 90 -1 81 -18 115 -30 59z"/>
<path d="M6591 4411 c-8 -14 -10 -137 -6 -401 3 -210 7 -385 9 -388 4 -7 12
-87 22 -221 3 -41 8 -79 12 -85 3 -6 10 -38 14 -71 4 -33 10 -73 13 -90 3 -16
8 -56 10 -89 3 -32 9 -64 15 -71 6 -7 10 -28 9 -46 0 -19 4 -83 11 -144 19
-188 31 -373 35 -565 2 -102 8 -196 13 -210 5 -14 6 -34 2 -45 -6 -18 2 -174
11 -200 2 -5 0 -35 -3 -65 -9 -75 2 -144 23 -148 12 -2 18 6 22 30 2 18 2 38
-2 43 -3 6 -7 44 -8 85 -5 223 -15 573 -18 625 -1 33 -6 114 -9 180 -4 66 -8
138 -9 160 -1 22 -6 46 -10 52 -4 7 -7 36 -6 65 2 29 -1 76 -5 103 -5 28 -8
58 -8 68 1 13 -4 16 -19 12 -10 -4 -19 -2 -19 3 0 6 5 12 10 14 12 4 16 90 5
108 -5 7 -9 43 -10 79 -1 37 -7 77 -14 89 -7 12 -10 41 -7 64 3 25 0 48 -7 57
-7 8 -13 28 -14 45 -3 52 -13 333 -17 496 -3 85 -7 166 -10 180 -3 14 -7 85
-9 157 -2 73 -6 136 -10 139 -3 3 -10 -3 -16 -15z"/>
<path d="M6626 4402 c-7 -12 6 -23 70 -56 29 -15 60 -36 69 -46 10 -11 28 -20
40 -20 12 0 39 -9 61 -19 21 -10 68 -26 104 -35 105 -26 137 -43 137 -74 0
-15 4 -151 7 -302 7 -256 7 -289 6 -322 0 -7 2 -40 5 -73 3 -33 7 -159 9 -280
7 -311 15 -485 29 -598 l13 -98 -68 -46 c-49 -32 -67 -50 -64 -62 7 -27 16
-174 22 -376 7 -254 9 -276 22 -302 7 -12 12 -34 12 -50 0 -47 -85 -88 -200
-97 -25 -1 -53 -6 -63 -11 -10 -4 -60 -3 -110 3 -155 18 -359 25 -391 13 -16
-7 -26 -14 -23 -18 4 -3 48 -7 99 -10 51 -2 104 -5 118 -7 87 -10 131 -19 135
-26 3 -5 19 -5 35 0 16 5 58 9 92 9 108 0 191 13 247 37 30 14 55 23 56 22 1
-2 10 -20 20 -40 29 -63 43 -49 42 42 0 43 -4 77 -7 75 -10 -6 -32 73 -25 86
4 5 2 31 -4 57 -17 81 -24 170 -26 388 l-3 211 34 16 c19 9 34 22 34 28 0 8 6
7 17 -2 10 -9 18 -10 20 -4 13 40 46 81 98 120 33 25 65 49 72 55 7 5 17 10
23 10 6 0 33 17 59 39 33 25 46 42 41 51 -6 10 -13 9 -31 -4 -13 -9 -31 -16
-41 -16 -10 0 -18 -4 -18 -10 0 -5 -6 -10 -14 -10 -7 0 -20 -7 -27 -16 -8 -9
-32 -28 -54 -42 -22 -14 -48 -36 -58 -49 -22 -27 -41 -21 -34 13 2 13 0 47 -5
76 -10 56 -15 171 -22 438 -2 91 -9 176 -14 190 -6 16 -6 34 0 50 5 14 7 50 4
80 -10 93 -18 223 -16 272 0 26 -4 56 -10 67 -6 13 -7 22 0 26 6 4 8 39 4 93
-19 281 -19 327 -4 339 19 15 3 45 -26 49 -68 7 -170 27 -178 35 -6 5 -27 9
-49 9 -29 0 -46 7 -67 28 -15 16 -47 34 -71 41 -24 7 -53 21 -64 31 -25 22
-62 34 -69 22z"/>
<path d="M3030 4380 c0 -10 56 -30 86 -30 22 0 60 -7 164 -32 42 -10 121 -24
180 -33 14 -2 50 -8 80 -15 30 -6 84 -15 120 -21 63 -10 96 -30 86 -54 -5 -15
12 -530 19 -575 3 -19 7 -80 8 -135 2 -55 7 -107 12 -114 7 -12 20 -474 15
-543 -1 -19 -2 -76 -1 -141 0 -24 6 -39 16 -43 8 -4 15 -18 15 -33 0 -42 1
-62 11 -130 7 -45 6 -67 -2 -77 -9 -11 -8 -14 5 -14 9 0 16 -4 16 -10 0 -20
29 -9 32 12 2 13 13 24 28 28 14 4 53 26 87 49 34 22 65 41 68 41 4 0 26 17
50 38 50 44 160 103 179 96 14 -5 20 -60 31 -259 3 -55 10 -109 15 -120 8 -17
33 -189 45 -310 2 -16 6 -59 10 -94 3 -35 10 -136 15 -225 5 -89 11 -174 15
-191 3 -16 7 -59 8 -95 2 -36 7 -71 11 -78 10 -16 17 -80 19 -163 2 -47 7 -70
20 -83 9 -10 18 -23 18 -29 1 -7 3 -23 5 -37 2 -14 5 -65 7 -115 3 -68 7 -90
18 -90 10 0 15 17 17 60 4 77 -27 366 -40 383 -10 12 -26 111 -34 217 -2 28
-7 70 -10 95 -3 25 -7 101 -10 170 -2 69 -9 157 -15 195 -6 39 -12 79 -14 90
-1 11 -3 20 -4 20 -1 0 -4 34 -6 75 -2 41 -10 102 -19 135 -9 32 -16 84 -16
115 0 31 -5 61 -10 66 -6 6 -13 65 -16 132 -5 114 -5 122 13 122 20 0 62 -13
225 -72 60 -21 114 -38 121 -38 8 0 41 -11 75 -25 33 -14 87 -28 119 -31 53
-6 57 -5 43 10 -13 14 -86 39 -140 50 -8 1 -35 12 -60 24 -25 12 -59 22 -76
22 -16 0 -54 11 -82 25 -29 14 -59 25 -67 25 -8 0 -15 4 -15 9 0 8 -60 23
-106 26 -12 0 -33 9 -47 18 -25 16 -27 16 -37 -1 -9 -16 -11 -16 -25 2 -14 19
-17 19 -47 4 -18 -8 -53 -31 -78 -49 -25 -19 -64 -43 -87 -53 -23 -10 -56 -33
-74 -52 -18 -19 -37 -34 -41 -34 -5 0 -26 -11 -46 -25 -20 -14 -39 -25 -42
-25 -7 0 -30 180 -37 285 -3 39 -6 174 -7 300 -1 127 -8 264 -14 305 -7 41
-10 100 -6 131 5 44 3 62 -11 82 -12 19 -14 30 -6 45 6 11 8 22 5 25 -3 3 -7
45 -10 94 -2 48 -7 129 -11 178 -3 50 -6 145 -5 212 1 71 -2 125 -8 128 -6 3
-7 17 -4 30 5 21 3 24 -28 24 -18 -1 -67 6 -108 14 -291 59 -610 104 -610 87z"/>
<path d="M6471 4350 c-28 -22 -53 -40 -56 -40 -7 0 -63 -39 -90 -63 -11 -10
-35 -27 -52 -38 -18 -12 -33 -25 -33 -30 0 -5 -9 -9 -19 -9 -11 0 -33 -14 -50
-31 -17 -16 -43 -32 -58 -35 -32 -5 -76 -35 -76 -49 1 -14 62 -6 98 12 16 9
57 36 90 61 33 24 83 57 110 73 28 16 72 51 99 79 29 29 59 50 71 50 26 0 45
18 45 42 0 28 -24 21 -79 -22z"/>
<path d="M2961 4336 c-1 -16 -4 -17 -13 -8 -23 23 -53 12 -108 -38 -30 -27
-59 -49 -63 -50 -5 0 -42 -20 -83 -45 -40 -25 -76 -45 -79 -45 -10 0 -145
-103 -145 -111 0 -19 28 -7 110 47 47 31 112 71 145 89 33 18 89 51 125 74
115 72 103 73 96 -11 -4 -40 -6 -84 -6 -98 9 -266 13 -344 25 -485 3 -33 5
-73 5 -90 0 -16 4 -61 9 -100 10 -73 18 -211 26 -504 3 -96 8 -179 12 -184 6
-10 9 -38 18 -172 2 -44 9 -111 15 -150 13 -90 39 -389 38 -435 -2 -108 15
-466 22 -475 5 -6 12 -42 16 -80 3 -39 13 -95 22 -125 16 -59 16 -63 8 -158
-3 -36 -1 -72 4 -83 9 -16 7 -19 -13 -19 -12 0 -28 5 -34 11 -6 6 -23 9 -39 7
-27 -3 -26 -5 26 -30 79 -38 91 -40 104 -23 9 12 18 13 44 5 19 -5 46 -7 60
-5 15 2 72 7 127 9 55 3 115 10 132 17 73 25 90 4 92 -107 1 -91 10 -124 32
-124 11 0 19 7 19 15 0 8 1 15 3 15 1 0 38 -7 82 -16 44 -8 109 -17 145 -19
36 -3 94 -9 130 -15 36 -6 139 -19 230 -29 91 -10 170 -20 175 -21 23 -5 35 1
35 19 0 16 -10 20 -64 26 -36 4 -69 4 -76 0 -6 -4 -17 -2 -24 5 -8 6 -25 9
-39 6 -14 -2 -47 2 -74 10 -26 8 -60 13 -76 10 -15 -3 -39 -1 -55 5 -15 7 -47
13 -72 15 -25 2 -61 6 -80 9 -19 3 -82 7 -139 8 -101 2 -104 3 -113 27 -5 14
-9 79 -8 145 0 66 -3 181 -8 255 -6 74 -12 233 -15 352 -3 120 -9 224 -14 230
-7 13 -33 165 -42 246 0 6 -10 12 -21 12 -19 0 -20 -5 -16 -88 3 -49 12 -110
21 -135 14 -43 18 -88 32 -377 5 -112 7 -157 18 -315 l6 -101 -53 -18 c-29 -9
-89 -20 -133 -22 -44 -2 -91 -7 -105 -11 -14 -3 -51 -7 -83 -7 -83 -2 -91 9
-82 117 5 55 4 87 -3 91 -6 3 -13 37 -17 74 -4 37 -13 99 -22 137 -8 39 -13
81 -12 95 7 60 -9 464 -21 528 -4 23 -7 78 -5 122 1 52 -2 80 -9 80 -7 0 -10
30 -8 91 2 55 -1 95 -7 103 -7 8 -12 61 -12 130 0 65 -4 118 -10 122 -5 3 -10
27 -10 52 1 26 -1 97 -4 157 -3 61 -6 169 -8 241 -3 73 -8 137 -12 143 -4 7
-7 56 -7 109 0 53 -3 104 -8 112 -4 8 -11 94 -14 190 -4 96 -9 193 -11 215 -3
22 -7 103 -9 180 -3 77 -9 151 -15 165 -8 21 -10 22 -10 6z"/>
<path d="M2423 3994 c-9 -22 -8 -164 2 -399 13 -294 13 -445 1 -445 -6 0 -20
6 -31 14 -16 10 -75 26 -105 28 -3 0 -16 5 -30 10 -14 5 -56 13 -93 17 -63 7
-70 5 -93 -16 -24 -22 -25 -27 -20 -107 3 -46 13 -150 22 -232 8 -82 19 -214
24 -294 4 -80 11 -156 13 -170 3 -14 8 -70 12 -125 3 -55 11 -120 16 -145 5
-25 11 -72 14 -105 21 -261 35 -388 74 -685 4 -31 3 -73 -1 -95 -5 -22 -4 -61
1 -90 6 -27 13 -92 17 -142 l7 -93 -54 -1 c-30 -1 -64 0 -76 1 -13 1 -23 -4
-23 -10 0 -17 40 -28 93 -25 41 1 51 -2 64 -21 12 -20 18 -21 41 -13 38 15
197 45 284 54 27 3 60 10 74 15 15 6 42 8 61 4 18 -3 53 -2 76 4 23 6 76 16
117 22 41 7 81 17 88 22 9 8 12 5 12 -10 0 -11 7 -23 16 -26 9 -4 17 -5 18 -4
1 2 9 17 19 35 23 41 22 56 -3 48 -21 -7 -23 -1 -20 47 1 14 -4 44 -10 66 -6
23 -11 114 -11 204 -1 90 -5 177 -10 193 -5 17 -11 87 -13 155 -2 69 -9 141
-14 160 -6 19 -13 80 -17 134 -3 55 -8 103 -10 106 -2 4 -7 76 -10 161 -8 206
-13 271 -22 278 -5 3 -9 65 -9 136 -1 115 -8 183 -30 303 -6 32 -5 33 20 26
19 -4 26 -2 26 9 0 21 -44 47 -79 47 -16 0 -51 9 -77 20 -46 20 -162 55 -234
70 -71 15 -67 7 -69 168 -1 81 -1 156 -1 167 3 36 2 49 -4 150 -3 55 -9 116
-12 135 -3 19 -6 83 -7 142 -2 106 -10 138 -24 102z m-263 -805 c25 -6 55 -13
68 -15 13 -3 42 -11 65 -19 38 -12 150 -41 202 -51 49 -10 153 -37 185 -49 19
-7 68 -23 108 -36 l72 -23 -1 -61 c-3 -89 5 -259 13 -270 3 -5 9 -66 13 -135
3 -68 8 -127 11 -131 2 -4 6 -87 8 -185 3 -99 10 -192 16 -208 6 -16 10 -45
10 -65 0 -61 9 -225 14 -246 12 -48 28 -220 32 -349 4 -132 15 -249 30 -325 7
-32 6 -34 -18 -28 -14 4 -49 0 -79 -9 -29 -9 -87 -18 -129 -19 -96 -5 -195
-18 -292 -39 -70 -16 -80 -16 -93 -2 -12 12 -22 13 -41 6 -52 -20 -61 -14 -70
48 -4 31 -9 104 -10 162 -2 105 -18 324 -29 390 -3 19 -7 64 -9 100 -2 36 -7
72 -10 80 -7 19 -19 154 -20 240 -1 36 -4 70 -8 75 -3 6 -7 37 -9 70 -1 33 -6
73 -10 88 -4 16 -13 101 -19 190 -11 171 -16 226 -26 295 -4 24 -8 75 -9 115
-4 100 -12 165 -25 197 -10 25 -10 51 0 203 1 20 1 20 60 6z"/>
<path d="M1959 3150 c-8 -5 -26 -11 -40 -14 -46 -8 -71 -22 -114 -63 -8 -7
-18 -13 -23 -13 -27 0 -198 -93 -260 -141 -13 -10 -43 -21 -68 -25 -24 -3 -44
-10 -44 -15 0 -5 3 -9 8 -10 4 0 15 -2 24 -4 21 -4 98 22 118 40 8 7 35 23 60
35 120 60 139 70 144 79 9 14 62 40 127 62 60 20 137 79 103 79 -11 0 -26 -5
-35 -10z"/>
<path d="M1379 2751 c-6 -22 -9 -47 -5 -57 4 -10 9 -124 12 -253 8 -372 10
-415 18 -436 4 -11 10 -27 12 -35 4 -12 6 -12 14 0 9 14 4 337 -6 380 -5 21
-6 237 -2 305 2 33 -14 125 -23 131 -4 2 -13 -13 -20 -35z"/>
<path d="M7490 2640 c-12 -7 -7 -12 20 -23 19 -8 53 -18 75 -21 22 -4 63 -20
90 -36 28 -16 66 -37 85 -46 19 -10 50 -33 68 -51 18 -18 42 -33 52 -33 23 0
69 -19 92 -38 16 -13 18 -13 24 3 10 24 -25 51 -76 60 -22 4 -43 12 -47 18 -9
13 -147 107 -158 107 -4 0 -20 9 -35 20 -15 11 -45 22 -66 25 -22 3 -55 9 -74
15 -19 5 -35 10 -35 10 0 0 -7 -5 -15 -10z"/>
<path d="M7586 2545 c-3 -8 -2 -48 3 -88 8 -63 8 -945 1 -972 -2 -5 1 -29 5
-53 6 -31 12 -42 24 -40 12 2 16 18 18 63 2 33 4 67 4 75 1 8 -1 202 -4 430
-5 378 -8 471 -23 568 -5 34 -18 42 -28 17z"/>
<path d="M4960 2420 c0 -18 25 -136 51 -238 11 -40 19 -81 19 -93 0 -11 5 -30
12 -42 7 -12 12 -26 13 -32 3 -31 18 -142 30 -220 8 -49 15 -121 16 -160 1
-38 8 -87 15 -108 8 -21 16 -53 19 -70 29 -182 39 -235 47 -254 14 -28 7 -36
-54 -68 -90 -47 -100 -54 -163 -107 -18 -16 -40 -28 -48 -28 -9 0 -19 -5 -23
-11 -3 -6 -23 -18 -42 -26 -20 -8 -62 -32 -93 -54 -32 -21 -62 -39 -67 -39 -5
0 -21 -9 -34 -20 -14 -10 -28 -16 -32 -13 -3 3 -6 2 -6 -4 0 -5 -11 -15 -25
-21 -31 -14 -34 -43 -4 -35 50 14 267 134 330 184 20 16 44 29 53 29 9 0 16 4
16 10 0 12 85 70 103 70 9 0 28 14 44 30 24 26 33 30 62 25 l34 -6 -5 39 c-5
37 -4 39 18 34 13 -2 24 0 24 6 0 6 -12 12 -27 14 -26 3 -29 8 -36 58 -4 30
-14 78 -22 105 -7 28 -17 79 -21 115 -12 106 -12 108 -18 118 -3 5 -8 51 -12
103 -3 52 -7 96 -9 99 -2 3 -15 77 -30 165 -15 88 -35 178 -44 200 -10 22 -24
71 -31 108 -7 37 -16 70 -21 73 -5 3 -9 13 -9 23 0 22 -29 63 -30 41z"/>
<path d="M7964 2330 c18 -149 23 -255 19 -480 -5 -244 -5 -262 -1 -290 0 -8 0
-34 0 -57 -2 -33 -6 -43 -24 -49 -12 -3 -38 -22 -57 -41 -81 -79 -188 -151
-221 -148 -23 1 -101 25 -140 42 -19 8 -49 22 -67 29 -18 8 -35 19 -38 24 -3
6 -19 10 -34 10 -15 0 -59 16 -98 35 -39 19 -81 35 -94 35 l-22 0 23 -25 c13
-13 46 -31 74 -39 29 -9 79 -29 111 -46 33 -16 63 -30 67 -30 4 0 42 -16 83
-35 49 -23 84 -34 98 -30 20 6 19 4 -5 -19 -16 -14 -28 -30 -28 -36 0 -16 37
-12 55 7 10 9 36 18 59 19 34 1 42 5 44 24 4 27 111 132 170 167 23 14 42 29
42 34 0 4 10 17 22 29 21 19 22 25 21 277 0 438 -13 604 -50 635 -14 12 -15 7
-9 -42z"/>
<path d="M1296 1971 c-3 -5 -30 -12 -60 -15 -36 -5 -68 -17 -93 -35 -21 -15
-56 -37 -78 -49 -63 -33 -315 -145 -319 -141 -2 2 -9 15 -16 28 -9 18 -14 21
-21 10 -10 -17 -3 -133 11 -158 5 -11 10 -37 10 -58 0 -21 5 -54 10 -75 19
-68 26 -258 15 -412 -5 -60 -2 -90 10 -121 11 -31 15 -70 13 -146 -1 -57 1
-114 6 -126 6 -20 4 -23 -18 -23 -14 0 -26 -3 -26 -8 0 -11 60 -40 95 -46 91
-15 274 -74 304 -97 13 -11 31 -19 40 -19 9 0 27 -7 41 -14 14 -8 41 -22 60
-31 19 -9 43 -21 52 -26 29 -15 43 -11 99 27 29 19 72 44 96 55 24 11 43 24
43 29 0 6 6 10 13 10 7 0 56 22 108 49 53 26 117 51 142 55 46 7 74 27 62 46
-15 24 -110 3 -180 -40 -22 -14 -44 -25 -50 -25 -5 0 -28 -12 -50 -26 -22 -14
-52 -29 -67 -33 -16 -3 -28 -10 -28 -15 0 -10 -71 -61 -122 -87 -29 -15 -32
-15 -80 15 -27 17 -52 31 -55 31 -3 0 -19 6 -36 13 -18 8 -50 20 -72 27 -22 7
-47 19 -56 27 -9 7 -27 16 -40 18 -13 2 -42 9 -64 14 -90 22 -100 24 -108 22
-5 -1 -24 4 -42 10 -35 13 -44 44 -23 86 8 16 7 29 -5 51 -8 18 -11 34 -6 39
6 6 5 32 -1 64 -6 30 -10 90 -10 134 0 44 1 121 0 170 0 50 0 109 0 132 1 24
-3 51 -9 61 -5 10 -12 58 -15 107 -4 49 -13 111 -21 139 -21 71 -20 81 14 82
16 1 44 13 61 28 17 14 40 26 50 26 10 0 41 11 68 25 28 14 56 25 63 25 8 0
38 17 68 37 29 20 79 48 110 61 88 37 91 38 91 11 0 -145 9 -273 22 -319 9
-30 15 -58 12 -61 -2 -3 3 -39 11 -78 9 -39 15 -88 14 -109 -2 -39 6 -182 17
-317 4 -44 7 -170 8 -280 1 -110 5 -206 9 -212 10 -16 33 -17 42 -3 4 6 2 17
-4 24 -13 15 -14 443 -1 513 5 28 4 43 -4 46 -7 2 -12 37 -13 88 -1 46 -7 122
-14 169 -6 47 -13 96 -14 110 -2 14 -8 43 -14 65 -12 46 -31 235 -31 313 l0
53 32 -17 c17 -9 45 -18 62 -19 17 -2 85 -18 151 -35 66 -18 145 -36 175 -41
53 -8 112 -26 138 -42 6 -5 17 -5 22 -2 6 3 19 4 29 0 17 -5 19 -13 14 -60 -4
-34 -1 -60 6 -68 6 -8 15 -85 20 -178 10 -168 16 -225 27 -269 3 -14 10 -63
15 -110 5 -47 14 -112 20 -145 24 -142 25 -131 -15 -150 -29 -14 -57 -16 -144
-14 -107 4 -108 4 -104 -17 4 -22 7 -22 125 -18 67 2 139 4 160 4 36 0 37 1
37 38 0 20 -7 82 -15 137 -8 55 -20 141 -26 190 -6 50 -18 125 -26 168 -8 43
-13 84 -10 90 4 12 0 54 -23 247 -8 58 -14 121 -14 142 -1 45 -5 49 -58 59
-24 4 -72 12 -107 19 -35 6 -80 18 -100 27 -20 9 -58 18 -86 20 -27 2 -59 7
-70 12 -11 4 -42 14 -70 20 -103 24 -165 46 -165 58 0 16 -17 26 -24 14z"/>
</g>
</svg>
